<?xml version="1.0" encoding="UTF-8" standalone="no"?>
<!-- Created with Inkscape (http://www.inkscape.org/) -->

<svg
   xmlns:dc="http://purl.org/dc/elements/1.1/"
   xmlns:cc="http://creativecommons.org/ns#"
   xmlns:rdf="http://www.w3.org/1999/02/22-rdf-syntax-ns#"
   xmlns:svg="http://www.w3.org/2000/svg"
   xmlns="http://www.w3.org/2000/svg"
   xmlns:sodipodi="http://sodipodi.sourceforge.net/DTD/sodipodi-0.dtd"
   xmlns:inkscape="http://www.inkscape.org/namespaces/inkscape"
   width="1.5cm"
   height="1.5cm"
   viewBox="0 0 53.149606 53.149605"
   id="svg2"
   version="1.1"
   inkscape:version="0.91 r13725"
   sodipodi:docname="problemsetup.svg">
  <defs
     id="defs4">
    <inkscape:path-effect
       effect="gears"
       id="path-effect5770"
       is_visible="true"
       teeth="14"
       phi="5.3" />
  </defs>
  <sodipodi:namedview
     id="base"
     pagecolor="#ffffff"
     bordercolor="#666666"
     borderopacity="1.0"
     inkscape:pageopacity="0.0"
     inkscape:pageshadow="2"
     inkscape:zoom="7.919596"
     inkscape:cx="7.160073"
     inkscape:cy="28.187688"
     inkscape:document-units="px"
     inkscape:current-layer="layer1"
     showgrid="false"
     units="cm"
     inkscape:window-width="1280"
     inkscape:window-height="1376"
     inkscape:window-x="2574"
     inkscape:window-y="27"
     inkscape:window-maximized="0" />
  <metadata
     id="metadata7">
    <rdf:RDF>
      <cc:Work
         rdf:about="">
        <dc:format>image/svg+xml</dc:format>
        <dc:type
           rdf:resource="http://purl.org/dc/dcmitype/StillImage" />
        <dc:title></dc:title>
      </cc:Work>
    </rdf:RDF>
  </metadata>
  <g
     inkscape:label="Layer 1"
     inkscape:groupmode="layer"
     id="layer1"
     transform="translate(0,-999.21265)">
    <path
       style="fill:#000000;fill-opacity:1;fill-rule:evenodd;stroke:#ffffff;stroke-width:0.31284547;stroke-linecap:butt;stroke-linejoin:miter;stroke-miterlimit:4;stroke-dasharray:none;stroke-opacity:1"
       d="m 14.493058,1004.7869 c 0,0 -0.376383,-0.5659 -0.411002,-1.8947 0.503222,-0.301 1.024672,-0.5705 1.561331,-0.8068 1.06385,0.797 1.30768,1.4314 1.30768,1.4314 l 0.611516,1.6029 c 0.740588,-0.2825 1.510503,-0.4812 2.295336,-0.5923 l -0.240408,-1.6986 c 0,0 -0.09357,-0.6732 0.4518,-1.8855 0.583993,-0.053 1.170709,-0.069 1.756752,-0.049 0.61268,1.1797 0.55711,1.8571 0.55711,1.8571 l -0.144508,1.7094 c 0.789837,0.067 1.569706,0.2219 2.325011,0.4623 l 0.520412,-1.6347 c 0,0 0.20777,-0.6471 1.225117,-1.5027 0.549099,0.2057 1.084875,0.4454 1.604228,0.7177 0.04016,1.3287 -0.303803,1.9148 -0.303803,1.9148 l -0.87191,1.4775 c 0.68265,0.4029 1.31801,0.8809 1.894189,1.4253 l 1.178159,-1.247 c 0,0 0.467962,-0.4929 1.755785,-0.8224 0.405447,0.4237 0.784166,0.8721 1.133965,1.3427 -0.540311,1.2145 -1.104543,1.5934 -1.104543,1.5934 l -1.426619,0.9529 c 0.440254,0.6591 0.805264,1.3655 1.088198,2.106 l 1.602558,-0.6124 c 0,0 0.635468,-0.241 1.938697,0.021 0.181493,0.5576 0.328145,1.1259 0.439108,1.7017 -1.013769,0.8599 -1.686516,0.9564 -1.686516,0.9564 l -1.698769,0.2395 c 0.110662,0.7849 0.133027,1.5797 0.06668,2.3696 l 1.70955,0.1436 c 0,0 0.677111,0.059 1.737627,0.86 -0.07841,0.5811 -0.19287,1.1568 -0.34272,1.7237 -1.286438,0.3348 -1.934453,0.1299 -1.934453,0.1299 l -1.634458,-0.5212 c -0.240848,0.7551 -0.565557,1.4809 -0.968049,2.1638 l 1.477944,0.8711 c 0,0 0.584646,0.3466 1.192399,1.5288 -0.32278,0.4896 -0.675684,0.9586 -1.056668,1.4043 -1.304311,-0.2565 -1.799248,-0.7223 -1.799248,-0.7223 l -1.246421,-1.1788 c -0.544657,0.5759 -1.152127,1.089 -1.811043,1.5296 l 0.953614,1.4261 c 0,0 0.376383,0.5659 0.411002,1.8947 -0.503222,0.301 -1.024672,0.5705 -1.561331,0.8068 -1.06385,-0.797 -1.30768,-1.4314 -1.30768,-1.4314 l -0.611516,-1.6029 c -0.740588,0.2825 -1.510503,0.4812 -2.295336,0.5923 l 0.240408,1.6986 c 0,0 0.09357,0.6732 -0.4518,1.8855 -0.583993,0.053 -1.170709,0.069 -1.756752,0.049 -0.61268,-1.1797 -0.55711,-1.8571 -0.55711,-1.8571 l 0.144508,-1.7094 c -0.789837,-0.067 -1.569706,-0.2219 -2.325011,-0.4623 l -0.520412,1.6347 c 0,0 -0.20777,0.6471 -1.225117,1.5027 -0.549099,-0.2057 -1.084875,-0.4454 -1.604228,-0.7177 -0.04016,-1.3287 0.303803,-1.9148 0.303803,-1.9148 l 0.87191,-1.4775 c -0.68265,-0.4029 -1.31801,-0.8809 -1.894189,-1.4253 l -1.178159,1.247 c 0,0 -0.467962,0.4929 -1.755785,0.8224 -0.405447,-0.4237 -0.784166,-0.8721 -1.1339652,-1.3427 0.5403112,-1.2145 1.1045432,-1.5934 1.1045432,-1.5934 l 1.426619,-0.9529 c -0.440254,-0.6591 -0.805264,-1.3655 -1.088198,-2.106 l -1.6025579,0.6124 c 0,0 -0.6354677,0.241 -1.9386973,-0.021 -0.1814927,-0.5576 -0.3281449,-1.1259 -0.439108,-1.7017 1.0137688,-0.8599 1.6865158,-0.9564 1.6865158,-0.9564 l 1.6987694,-0.2395 c -0.110662,-0.7849 -0.133027,-1.5797 -0.06668,-2.3696 l -1.7095496,-0.1436 c 0,0 -0.6771118,-0.059 -1.7376274,-0.86 0.078409,-0.5811 0.1928699,-1.1568 0.3427203,-1.7237 1.2864373,-0.3348 1.9344529,-0.1299 1.9344529,-0.1299 l 1.6344578,0.5212 c 0.240848,-0.7551 0.565557,-1.4809 0.968049,-2.1638 l -1.477944,-0.8711 c 0,0 -0.584646,-0.3466 -1.1923994,-1.5288 0.3227809,-0.4896 0.6756844,-0.9586 1.0566684,-1.4043 1.304311,0.2565 1.799248,0.7223 1.799248,0.7223 l 1.246421,1.1788 c 0.544657,-0.5759 1.152127,-1.089 1.811043,-1.5296 l -0.953614,-1.4261 m 17.941442,16.9507 c 0,0 -0.379152,-0.5943 -0.243134,-1.9516 0.479291,-0.257 0.977632,-0.4768 1.490619,-0.6574 1.094003,0.8148 1.277189,1.4955 1.277189,1.4955 l 0.441637,1.6734 c 0.716523,-0.1891 1.45831,-0.2644 2.198221,-0.2233 l 0.09617,-1.728 c 0,0 0.04258,-0.7036 0.950419,-1.7218 0.538826,0.074 1.071181,0.1889 1.59236,0.3443 0.406135,1.3023 0.154213,1.9607 0.154213,1.9607 l -0.626305,1.6134 c 0.690831,0.2681 1.335233,0.6432 1.90963,1.1114 l 1.093507,-1.3415 c 0,0 0.448047,-0.5442 1.780945,-0.8343 0.392547,0.3764 0.755574,0.7825 1.085872,1.2145 -0.436863,1.2923 -1.027666,1.6769 -1.027666,1.6769 l -1.45502,0.9371 c 0.401264,0.623 0.702142,1.3052 0.891624,2.0216 l 1.673161,-0.4425 c 0,0 0.682376,-0.1769 1.93121,0.3719 0.09633,0.5352 0.151364,1.0771 0.16462,1.6208 -1.112995,0.7886 -1.817013,0.7525 -1.817013,0.7525 l -1.727967,-0.097 c -0.04157,0.7399 -0.199143,1.4687 -0.466951,2.1597 l 1.613724,0.6254 c 0,0 0.656061,0.2579 1.343819,1.436 -0.236684,0.4896 -0.510662,0.9603 -0.819513,1.408 -1.364,-0.016 -1.912321,-0.4592 -1.912321,-0.4592 l -1.340889,-1.0942 c -0.468528,0.5741 -1.024363,1.0711 -1.647168,1.4727 l 0.9379,1.4545 c 0,0 0.379152,0.5943 0.243134,1.9516 -0.479291,0.257 -0.977632,0.4768 -1.490619,0.6574 -1.094003,-0.8148 -1.277189,-1.4955 -1.277189,-1.4955 l -0.441637,-1.6734 c -0.716523,0.1891 -1.45831,0.2644 -2.198221,0.2233 l -0.09617,1.728 c 0,0 -0.04258,0.7036 -0.950419,1.7218 -0.538826,-0.074 -1.071181,-0.1889 -1.59236,-0.3443 -0.406135,-1.3023 -0.154213,-1.9607 -0.154213,-1.9607 l 0.626305,-1.6134 c -0.690831,-0.2681 -1.335233,-0.6432 -1.90963,-1.1114 l -1.093507,1.3415 c 0,0 -0.448047,0.5442 -1.780945,0.8343 -0.392547,-0.3764 -0.755574,-0.7825 -1.085872,-1.2145 0.436863,-1.2923 1.027666,-1.6769 1.027666,-1.6769 l 1.45502,-0.9371 c -0.401264,-0.623 -0.702142,-1.3052 -0.891624,-2.0216 l -1.673161,0.4425 c 0,0 -0.682376,0.1769 -1.93121,-0.3719 -0.09633,-0.5352 -0.151364,-1.0771 -0.16462,-1.6208 1.112995,-0.7886 1.817013,-0.7525 1.817013,-0.7525 l 1.727967,0.097 c 0.04157,-0.7399 0.199143,-1.4687 0.466951,-2.1597 l -1.613724,-0.6254 c 0,0 -0.656061,-0.2579 -1.343819,-1.436 0.236684,-0.4896 0.510662,-0.9603 0.819513,-1.408 1.364,0.016 1.912321,0.4592 1.912321,0.4592 l 1.340889,1.0942 c 0.468528,-0.5741 1.024363,-1.0711 1.647168,-1.4727 l -0.9379,-1.4545 m -1.065276,14.4829 c 0,0 0.594351,-0.4247 1.981423,-0.2422 0.25392,0.4452 0.468656,0.9116 0.641785,1.394 -0.763212,1.1725 -1.472291,1.348 -1.472291,1.348 l -1.690531,0.4045 c 0.161915,0.6766 0.189147,1.3786 0.08015,2.0658 l 1.71679,0.2723 c 0,0 0.720541,0.12 1.572303,1.2298 -0.135236,0.4944 -0.313191,0.976 -0.531856,1.4395 -1.368764,0.2894 -1.994228,-0.088 -1.994228,-0.088 l -1.481417,-0.9094 c -0.363993,0.593 -0.841069,1.1086 -1.404061,1.5174 l 1.021399,1.4065 c 0,0 0.424649,0.5944 0.24215,1.9815 -0.445172,0.2539 -0.911575,0.4686 -1.393943,0.6418 -1.172512,-0.7633 -1.347974,-1.4723 -1.347974,-1.4723 l -0.404508,-1.6906 c -0.676679,0.1619 -1.378599,0.1892 -2.065789,0.08 l -0.272313,1.7168 c 0,0 -0.119997,0.7205 -1.229853,1.5723 -0.494331,-0.1353 -0.97597,-0.3132 -1.439476,-0.5319 -0.289418,-1.3687 0.0879,-1.9942 0.0879,-1.9942 l 0.909356,-1.4814 c -0.592975,-0.364 -1.108564,-0.8411 -1.517406,-1.4041 l -1.406508,1.0214 c 0,0 -0.594351,0.4247 -1.981423,0.2422 -0.25392,-0.4452 -0.468656,-0.9116 -0.641785,-1.394 0.763212,-1.1725 1.472291,-1.348 1.472291,-1.348 l 1.690531,-0.4045 c -0.161915,-0.6766 -0.189147,-1.3786 -0.08015,-2.0658 l -1.71679,-0.2723 c 0,0 -0.720541,-0.12 -1.572303,-1.2298 0.135236,-0.4944 0.313191,-0.976 0.531856,-1.4395 1.368764,-0.2894 1.994228,0.088 1.994228,0.088 l 1.481417,0.9094 c 0.363993,-0.593 0.841069,-1.1086 1.404061,-1.5174 l -1.021399,-1.4065 c 0,0 -0.424649,-0.5944 -0.24215,-1.9815 0.445172,-0.2539 0.911575,-0.4686 1.393943,-0.6418 1.172512,0.7633 1.347974,1.4723 1.347974,1.4723 l 0.404508,1.6906 c 0.676679,-0.1619 1.378599,-0.1892 2.065789,-0.08 l 0.272313,-1.7168 c 0,0 0.119997,-0.7205 1.229853,-1.5723 0.494331,0.1353 0.97597,0.3132 1.439476,0.5319 0.289418,1.3687 -0.0879,1.9942 -0.0879,1.9942 l -0.909356,1.4814 c 0.592975,0.364 1.108564,0.8411 1.517406,1.4041 l 1.406508,-1.0214"
       id="path5768"
       inkscape:connector-curvature="0"
       inkscape:path-effect="#path-effect5770"
       inkscape:original-d="m 18.319294,1009.1783 3.025577,5.8554 8.557,8.9459 7.304076,5.1577 c 23.043219,7.8303 -12.343611,7.3729 -11.536171,11.2221"
       sodipodi:nodetypes="ccccc" />
    <circle
       style="fill:#ffffff;fill-opacity:1;stroke:none;stroke-width:0.30000001;stroke-linecap:round;stroke-linejoin:round;stroke-miterlimit:4;stroke-dasharray:none;stroke-dashoffset:0;stroke-opacity:1"
       id="path5776"
       cx="21.351109"
       cy="1014.9621"
       r="7.1810522" />
    <circle
       style="fill:#ffffff;fill-opacity:1;stroke:none;stroke-width:0.30000001;stroke-linecap:round;stroke-linejoin:round;stroke-miterlimit:4;stroke-dasharray:none;stroke-dashoffset:0;stroke-opacity:1"
       id="path5776-4"
       cx="37.297977"
       cy="1029.037"
       r="4.5623417" />
    <circle
       style="fill:#ffffff;fill-opacity:1;stroke:none;stroke-width:0.30000001;stroke-linecap:round;stroke-linejoin:round;stroke-miterlimit:4;stroke-dasharray:none;stroke-dashoffset:0;stroke-opacity:1"
       id="path5776-4-6"
       cx="25.677429"
       cy="1040.4004"
       r="2.9810982" />
  </g>
</svg>
